<svg width="147" height="24" viewBox="0 0 147 24" fill="none" xmlns="http://www.w3.org/2000/svg">
<path d="M30.4508 17.3635C30.6845 18.591 32.7727 19.2545 34.9281 19.2545C36.552 19.2545 38.1116 19.123 39.8027 18.5911L40.6 22.7064C38.3774 23.6037 36.1548 23.8346 34.0666 23.8346C27.9624 23.8346 24.5132 20.5494 24.5132 15.3701C24.5132 12.1491 26.7358 6.70679 33.4678 6.70679C39.3062 6.70679 41.5288 11.056 41.5288 15.2035C41.5288 16.0657 41.3973 16.9952 41.298 17.3605H30.4508V17.3635ZM35.7255 13.1487C35.7255 12.418 35.229 10.6935 33.1729 10.6935C31.2482 10.6935 30.4859 12.2193 30.3544 13.1487H35.7284H35.7255Z" fill="#195ED8"/>
<path d="M63.2261 23.8375V7.50464H69.4938V23.8375H63.2261ZM69.4938 3.29575C69.4938 5.029 68.0919 6.43196 66.36 6.43196C64.628 6.43196 63.2261 5.029 63.2261 3.29575C63.2261 1.56251 64.628 0.159546 66.36 0.159546C68.0919 0.159546 69.4938 1.56251 69.4938 3.29575Z" fill="#3A3A3A"/>
<path d="M73.4749 13.1807C73.4749 10.8571 73.4077 8.96598 73.3434 7.50456H78.7495L79.0153 9.66162H79.1467C79.6432 8.96306 81.235 7.10706 84.3221 7.10706C88.2357 7.10706 90.6569 9.62946 90.6569 14.4083V23.8345H84.3893V15.3378C84.3893 13.2129 83.627 12.0846 82.0674 12.0846C80.7064 12.0846 80.1427 13.0463 79.8769 13.6776C79.7455 13.9757 79.7455 14.4083 79.7455 14.7737V23.8345H73.4778V13.1778L73.4749 13.1807Z" fill="#3A3A3A"/>
<path d="M121.44 17.3635C121.674 18.591 123.762 19.2545 125.917 19.2545C127.541 19.2545 129.101 19.123 130.792 18.5911L131.589 22.7064C129.367 23.6037 127.144 23.8346 125.056 23.8346C118.952 23.8346 115.503 20.5494 115.503 15.3701C115.503 12.1491 117.725 6.70679 124.457 6.70679C130.295 6.70679 132.518 11.056 132.518 15.2035C132.518 16.0657 132.387 16.9952 132.287 17.3605H121.44V17.3635ZM126.715 13.1487C126.715 12.418 126.218 10.6935 124.162 10.6935C122.237 10.6935 121.475 12.2193 121.344 13.1487H126.718H126.715Z" fill="#3A3A3A"/>
<path d="M135.372 13.1136C135.372 10.2258 135.339 8.76443 135.24 7.50468H140.579L140.778 10.6584H140.909C141.806 7.96941 144.128 7.10718 145.652 7.10718C146.184 7.10718 146.414 7.10718 146.879 7.20655V13.0172C146.414 12.9178 145.918 12.8184 145.22 12.8184C143.064 12.8184 141.902 13.7157 141.671 14.9433C141.639 15.2093 141.639 15.4753 141.639 15.7412V23.8404H135.372V13.1195V13.1136Z" fill="#3A3A3A"/>
<path d="M15.6225 1.46313H7.06506L6.10352e-05 23.8375H6.60068L11.0459 5.68079L16.1862 23.8375H23.1519L15.6225 1.46313Z" fill="#195ED8"/>
<path d="M44.5169 10.3895L44.511 23.8317L50.7787 23.8346L50.7846 15.4373L59.675 15.4431V10.3983L50.7875 10.3924L44.5169 10.3895Z" fill="#3A3A3A"/>
<path d="M60.2441 1.46897L44.5224 1.46021L44.5195 6.43195H60.2412L60.2441 1.46897Z" fill="#3A3A3A"/>
<path d="M112.451 0.159546H106.18V8.30257H106.113C105.251 7.14221 103.525 6.70963 101.636 6.70963C97.4561 6.70963 93.6739 9.96275 93.709 15.4051C93.709 20.8503 97.424 23.8375 101.238 23.8375C103.262 23.8375 105.45 23.1389 106.679 21.0812H106.747L106.98 23.437H112.585C112.518 22.5748 112.454 20.4177 112.454 18.2928V0.159546H112.451ZM106.18 15.4372C106.18 15.8026 106.18 16.2001 106.113 16.5654C105.914 17.8281 104.819 18.8891 103.359 18.8891C101.469 18.8891 100.108 17.5271 100.108 15.1712C100.108 13.1136 101.136 11.354 103.391 11.354C104.816 11.354 105.911 12.3829 106.145 13.6777C106.177 13.9086 106.177 14.1746 106.177 14.4084V15.4372H106.18Z" fill="#3A3A3A"/>
</svg>
