<svg width="73" height="110" viewBox="0 0 73 110" fill="none" xmlns="http://www.w3.org/2000/svg">
<path d="M63.4583 51.541L4.91502 85.3307L2.91113 86.4867L0.520492 85.1128C0.236037 84.9434 0 84.5379 0 84.205V35.4716C0 35.2786 0.0665751 35.0661 0.175515 34.8791C0.290508 34.6855 0.435761 34.522 0.605223 34.4252L60.0139 0.127097C60.2984 -0.0423658 60.7705 -0.0423658 61.061 0.127097L63.4395 1.50095L63.4583 51.541Z" fill="#138DFD"/>
<path d="M4.91502 37.615V85.331L2.91113 86.487L0.520492 85.1131C0.236038 84.9436 0 84.5381 0 84.2053V35.4719C0 35.2788 0.0665751 35.0664 0.175515 34.8794L4.91502 37.615Z" fill="#138DFD"/>
<path d="M4.03042 35.2872L62.3461 1.61787C63.2146 1.11674 63.9185 1.52345 63.9185 2.52571V49.9929C63.9185 50.9952 63.2146 52.2147 62.3461 52.7164L4.03042 86.3851C3.16193 86.8869 2.45805 86.4802 2.45805 85.4773V38.0107C2.45805 37.0078 3.16253 35.7889 4.03042 35.2872Z" fill="#57AEFF"/>
<path opacity="0.2" d="M9.71483 37.6578L70.3648 2.6411C71.2674 2.11992 72 2.54291 72 3.58527V52.952C72 53.9944 71.2674 55.2627 70.3648 55.7845L9.71546 90.8006C8.81221 91.3224 8.08017 90.8994 8.08017 89.8564V40.4903C8.08017 39.4473 8.81221 38.1796 9.71483 37.6578Z" fill="#E9FFFB"/>
<path d="M9.71483 37.6578L70.3648 2.6411C71.2674 2.11992 72 2.54291 72 3.58527V52.952C72 53.9944 71.2674 55.2627 70.3648 55.7845L9.71546 90.8006C8.81221 91.3224 8.08017 90.8994 8.08017 89.8564V40.4903C8.08017 39.4473 8.81221 38.1796 9.71483 37.6578Z" stroke="#DCEEFF" stroke-width="0.559506" stroke-miterlimit="10"/>
<path d="M18.6641 39.2408C18.6641 39.745 19.1167 39.8923 19.6744 39.5694L32.0942 31.9848C32.6519 31.6625 33.1045 30.9928 33.1045 30.4886C33.1045 29.9851 32.6519 29.8378 32.0936 30.16L19.6744 37.7453C19.1167 38.0675 18.6641 38.7373 18.6641 39.2408Z" fill="#DCEEFF"/>
<path d="M18.6641 43.2721C18.6641 43.7756 19.1167 43.9229 19.6744 43.6006L25.3491 40.0163C25.9068 39.6941 26.3593 39.0243 26.3593 38.5208C26.3593 38.0166 25.9068 37.8693 25.3485 38.1922L19.6744 41.7759C19.1167 42.0982 18.6641 42.7679 18.6641 43.2721Z" fill="#DCEEFF"/>
<path fill-rule="evenodd" clip-rule="evenodd" d="M21.8391 92.3428C21.0247 91.8726 21.6016 89.9315 22.7534 89.2665L30.5399 84.7706L30.5413 39.4536C30.5413 38.6291 31.1202 37.6265 31.8342 37.2142L43.7916 30.3101C44.5057 29.8978 45.0845 30.232 45.0844 31.0565L45.083 76.3734L52.5034 72.089C53.6552 71.4239 54.2319 72.6989 53.4174 74.1097L38.999 99.0832C38.2417 100.395 37.0138 101.104 36.2565 100.667L21.8391 92.3428Z" fill="url(#paint0_linear_96_4090)"/>
<defs>
<linearGradient id="paint0_linear_96_4090" x1="37.8132" y1="96.4246" x2="12.4996" y2="52.5835" gradientUnits="userSpaceOnUse">
<stop stop-color="#138DFD" stop-opacity="0.7"/>
<stop offset="0.640625" stop-color="#138DFD" stop-opacity="0.0672"/>
<stop offset="1" stop-color="#138DFD" stop-opacity="0"/>
</linearGradient>
</defs>
</svg>
