<svg width="240" height="240" viewBox="0 0 240 240" fill="none" xmlns="http://www.w3.org/2000/svg">
<g clip-path="url(#clip0_64_45793)">
<path opacity="0.15" d="M168.549 133.935L122.31 160.61C121.713 160.958 120.934 161.124 120.155 161.124C119.376 161.124 118.596 160.958 117.999 160.61L71.7704 133.938C71.1733 133.599 70.875 133.15 70.875 132.695C70.875 132.372 71.0324 132.04 71.3472 131.758C71.4636 131.65 71.6044 131.543 71.7698 131.451L118.009 104.784C119.195 104.096 121.126 104.096 122.32 104.784L168.549 131.448C169.735 132.135 169.735 133.255 168.549 133.935Z" fill="#15519B"/>
<path d="M168.549 130.131L122.31 156.798C121.713 157.147 120.934 157.313 120.155 157.313C119.376 157.313 118.605 157.147 118.008 156.807L71.7704 130.135C71.1733 129.787 70.875 129.339 70.875 128.892C70.875 128.436 71.1733 127.988 71.7704 127.648L78.038 124.034L118.01 100.973C119.195 100.285 121.127 100.285 122.321 100.973L168.549 127.644C169.735 128.324 169.735 129.443 168.549 130.131Z" fill="#DCEEFF"/>
<path d="M120.155 148.326V157.313C119.376 157.313 118.605 157.147 118.008 156.807L71.7704 130.135C71.1733 129.787 70.875 129.339 70.875 128.892V121.107C70.875 120.784 71.0324 120.452 71.3472 120.17L78.0375 124.033L120.155 148.326Z" fill="#0060B9"/>
<path d="M120.155 148.326V157.313C120.934 157.313 121.705 157.147 122.301 156.807L168.549 130.132C169.146 129.784 169.445 129.336 169.445 128.888V121.103C169.445 120.78 169.287 120.449 168.973 120.167L162.282 124.03L120.155 148.326Z" fill="#138DFD"/>
<path d="M168.549 122.347L122.31 149.022C121.713 149.37 120.934 149.535 120.155 149.535C119.376 149.535 118.596 149.37 117.999 149.022L71.7704 122.35C71.1733 122.01 70.875 121.563 70.875 121.107C70.875 120.784 71.0324 120.452 71.3472 120.17C71.4636 120.062 71.6044 119.954 71.7698 119.863L118.009 93.1962C119.195 92.5078 121.126 92.5078 122.32 93.1962L168.549 119.859C169.735 120.547 169.735 121.667 168.549 122.347Z" fill="#5EB2FF"/>
<path d="M118.727 98.6117L81.1542 120.281C80.3613 120.739 80.3613 121.482 81.1542 121.939L118.717 143.605C119.51 144.063 120.796 144.063 121.589 143.605L159.161 121.936C159.954 121.478 159.954 120.736 159.161 120.278L121.599 98.6117C120.806 98.1539 119.521 98.1539 118.727 98.6117Z" fill="#138DFD"/>
<path d="M159.162 120.277L121.599 98.6111C121.203 98.3822 120.683 98.2675 120.163 98.2675V99.7263L158.914 122.078L159.162 121.935C159.955 121.478 159.955 120.736 159.162 120.277Z" fill="#0060B9"/>
<path d="M120.164 98.2686C119.644 98.268 119.124 98.3827 118.727 98.6117L81.1542 120.281C80.3613 120.739 80.3613 121.482 81.1542 121.939L81.4023 122.082L120.164 99.7269V98.2686Z" fill="#0060B9"/>
<path d="M120.469 111.166L131.592 104.765C131.764 104.665 131.765 104.504 131.592 104.404L120.469 97.982C120.296 97.8822 120.016 97.8822 119.844 97.982L108.739 104.403C108.567 104.504 108.567 104.665 108.739 104.765L119.844 111.166C120.016 111.265 120.296 111.265 120.469 111.166Z" stroke="white" stroke-width="1.42292" stroke-miterlimit="10" stroke-linecap="round"/>
<path d="M120.166 106.971V132.696C120.826 132.696 121.487 132.551 121.99 132.26L145.789 118.52C146.796 117.938 147.613 116.524 147.613 115.361V106.971H120.166Z" fill="#138DFD"/>
<path d="M92.7188 106.971V115.361C92.7188 116.524 93.5352 117.938 94.5426 118.52L118.342 132.26C118.846 132.551 119.506 132.696 120.165 132.696V106.971H92.7188Z" fill="#0060B9"/>
<path d="M118.333 122.387L93.4746 108.025C92.4671 107.443 92.4676 106.5 93.4751 105.919L118.342 91.5612C119.35 90.9796 120.983 90.9796 121.989 91.5612L146.857 105.919C147.865 106.5 147.865 107.443 146.857 108.025L121.98 122.387C120.973 122.969 119.34 122.969 118.333 122.387Z" fill="#5AB0FF"/>
<path d="M98.5739 106.272L118.95 94.5035C119.621 94.1155 120.71 94.1155 121.381 94.5035L141.766 106.273C142.438 106.661 142.438 107.289 141.766 107.676L121.372 119.446C120.701 119.834 119.612 119.834 118.94 119.446L98.5734 107.677C97.9021 107.288 97.9026 106.66 98.5739 106.272Z" stroke="white" stroke-width="1.42292" stroke-miterlimit="10" stroke-linecap="round"/>
<path d="M120.765 97.4457L136.801 106.62C137.136 106.814 137.136 107.128 136.801 107.323L120.765 116.508C120.429 116.702 119.884 116.702 119.549 116.508L103.649 107.326C103.313 107.132 103.313 106.817 103.649 106.624L119.549 97.4463C119.884 97.252 120.428 97.252 120.765 97.4457Z" stroke="white" stroke-width="1.42292" stroke-miterlimit="10" stroke-linecap="round"/>
<path d="M99.0275 116.021C99.0275 115.471 98.6411 114.802 98.1646 114.526C97.9224 114.386 97.7041 114.376 97.5478 114.471L97.5473 114.47L94.0266 116.504C93.3116 116.917 92.7257 117.931 92.7257 118.757V123.594C92.7257 123.774 92.8447 123.954 93.0832 124.092C93.5597 124.367 94.3318 124.367 94.8078 124.092C95.0463 123.954 95.1653 123.774 95.1648 123.594V118.837C95.1648 118.73 95.2219 118.631 95.3147 118.577L98.7708 116.582C98.773 116.58 98.7751 116.579 98.7772 116.577L98.7863 116.572L98.7857 116.571C98.9346 116.478 99.0275 116.289 99.0275 116.021Z" fill="url(#paint0_linear_64_45793)"/>
<path d="M104.308 119.083C104.308 118.533 103.922 117.864 103.445 117.588C103.202 117.448 102.985 117.439 102.828 117.533L102.827 117.532L99.306 119.566C98.591 119.979 98.0056 120.993 98.0056 121.819V126.656C98.0056 126.836 98.1246 127.016 98.3626 127.154C98.8391 127.429 99.6112 127.429 100.087 127.154C100.325 127.017 100.444 126.836 100.444 126.655V121.899C100.444 121.792 100.502 121.692 100.595 121.639L104.05 119.643C104.052 119.642 104.054 119.641 104.057 119.64L104.066 119.634L104.066 119.633C104.215 119.54 104.308 119.351 104.308 119.083Z" fill="url(#paint1_linear_64_45793)"/>
<path d="M109.587 122.145C109.587 121.595 109.201 120.926 108.725 120.65C108.482 120.51 108.265 120.501 108.108 120.596V120.595L104.586 122.628C103.871 123.041 103.286 124.055 103.286 124.881V129.718C103.286 129.898 103.405 130.078 103.643 130.216C104.12 130.491 104.892 130.491 105.368 130.216C105.606 130.078 105.725 129.898 105.725 129.718V124.961C105.725 124.854 105.782 124.755 105.875 124.701L109.331 122.706C109.333 122.704 109.335 122.703 109.337 122.702L109.346 122.697L109.346 122.695C109.495 122.602 109.587 122.413 109.587 122.145Z" fill="url(#paint2_linear_64_45793)"/>
<path d="M114.868 125.208C114.868 124.657 114.482 123.988 114.005 123.713C113.763 123.573 113.545 123.563 113.388 123.658L109.866 125.691C109.151 126.104 108.566 127.117 108.566 127.943V132.78C108.566 132.961 108.685 133.141 108.923 133.278C109.4 133.554 110.172 133.554 110.648 133.279C110.886 133.141 111.005 132.961 111.005 132.78V128.024C111.005 127.917 111.062 127.817 111.155 127.764L114.611 125.768C114.613 125.767 114.615 125.766 114.618 125.764L114.627 125.759L114.626 125.757C114.775 125.664 114.868 125.476 114.868 125.208Z" fill="url(#paint3_linear_64_45793)"/>
<path d="M141.304 116.021C141.304 115.471 141.691 114.802 142.167 114.526C142.409 114.386 142.627 114.376 142.784 114.471L142.785 114.47L146.306 116.504C147.021 116.917 147.606 117.931 147.606 118.757V123.594C147.606 123.774 147.487 123.954 147.249 124.092C146.772 124.367 146 124.367 145.524 124.092C145.286 123.954 145.167 123.774 145.167 123.594V118.837C145.167 118.73 145.11 118.631 145.017 118.577L141.561 116.582C141.558 116.58 141.556 116.579 141.554 116.577L141.545 116.572L141.546 116.571C141.397 116.478 141.304 116.289 141.304 116.021Z" fill="url(#paint4_linear_64_45793)"/>
<path d="M136.024 119.083C136.024 118.533 136.41 117.864 136.887 117.588C137.129 117.448 137.347 117.439 137.504 117.533L137.504 117.532L141.025 119.566C141.74 119.979 142.326 120.993 142.326 121.819V126.656C142.326 126.836 142.207 127.016 141.969 127.154C141.492 127.429 140.72 127.429 140.244 127.154C140.006 127.017 139.887 126.836 139.887 126.655V121.899C139.887 121.792 139.83 121.692 139.737 121.639L136.281 119.643C136.278 119.642 136.276 119.641 136.274 119.64L136.265 119.634L136.266 119.633C136.117 119.54 136.024 119.351 136.024 119.083Z" fill="url(#paint5_linear_64_45793)"/>
<path d="M130.744 122.145C130.744 121.595 131.13 120.926 131.607 120.65C131.849 120.51 132.067 120.501 132.224 120.596L132.224 120.595L135.745 122.628C136.46 123.041 137.045 124.055 137.045 124.881V129.718C137.045 129.898 136.926 130.078 136.688 130.216C136.212 130.491 135.44 130.491 134.964 130.216C134.726 130.078 134.606 129.898 134.607 129.718V124.961C134.607 124.854 134.55 124.755 134.457 124.701L131 122.706C130.998 122.704 130.996 122.703 130.994 122.702L130.985 122.697L130.985 122.695C130.837 122.602 130.744 122.413 130.744 122.145Z" fill="url(#paint6_linear_64_45793)"/>
<path d="M125.464 125.208C125.464 124.657 125.85 123.988 126.326 123.713C126.569 123.573 126.787 123.563 126.943 123.658L126.944 123.657L130.465 125.691C131.181 126.104 131.766 127.117 131.766 127.943V132.78C131.766 132.961 131.646 133.141 131.408 133.278C130.932 133.554 130.16 133.554 129.684 133.279C129.446 133.141 129.327 132.961 129.327 132.78V128.024C129.327 127.917 129.27 127.817 129.177 127.764L125.72 125.768C125.718 125.767 125.716 125.766 125.714 125.764L125.705 125.759L125.705 125.757C125.556 125.664 125.464 125.476 125.464 125.208Z" fill="url(#paint7_linear_64_45793)"/>
<g opacity="0.8">
<path d="M168.924 95.2013L122.685 121.868C122.088 122.217 121.309 122.383 120.53 122.383C119.751 122.383 118.98 122.217 118.383 121.877L72.1454 95.205C71.5483 94.8571 71.25 94.4094 71.25 93.9618C71.25 93.5061 71.5483 93.0584 72.1454 92.7179L78.413 89.1039L118.385 66.0429C119.57 65.3551 121.502 65.3551 122.696 66.0429L168.924 92.7142C170.11 93.394 170.11 94.5135 168.924 95.2013Z" fill="#DCEEFF"/>
<path d="M120.53 113.396V122.383C119.751 122.383 118.98 122.217 118.383 121.877L72.1454 95.205C71.5483 94.8571 71.25 94.4094 71.25 93.9618V86.1766C71.25 85.8538 71.4074 85.5219 71.7222 85.2401L78.4125 89.1033L120.53 113.396Z" fill="#138DFD"/>
<path d="M120.53 113.396V122.383C121.309 122.383 122.08 122.217 122.676 121.877L168.924 95.2018C169.521 94.8539 169.82 94.4062 169.82 93.9585V86.1734C169.82 85.8505 169.662 85.5192 169.348 85.2369L162.657 89.1002L120.53 113.396Z" fill="#5AB0FF"/>
<path d="M168.924 87.4167L122.685 114.092C122.088 114.44 121.309 114.606 120.53 114.606C119.751 114.606 118.971 114.44 118.374 114.092L72.1454 87.4204C71.5483 87.0805 71.25 86.6333 71.25 86.1766C71.25 85.8537 71.4074 85.5218 71.7222 85.2401C71.8386 85.1323 71.9794 85.0245 72.1448 84.9333L118.384 58.2663C119.57 57.5779 121.501 57.5779 122.695 58.2663L168.924 84.9296C170.11 85.6174 170.11 86.7369 168.924 87.4167Z" fill="#8BC7FF"/>
<path d="M120.538 58.2841C121.25 58.2841 121.939 58.4463 122.429 58.7286L168.657 85.3913C169.054 85.6218 169.281 85.9079 169.28 86.1773C169.28 86.4452 169.053 86.728 168.658 86.9548L122.417 113.631C121.929 113.915 121.259 114.072 120.53 114.072C119.801 114.072 119.131 113.915 118.641 113.63L72.41 86.9569C72.0125 86.7307 71.7846 86.4463 71.7846 86.1768C71.7846 85.9996 71.8892 85.8081 72.0861 85.6309C72.1848 85.5397 72.291 85.4623 72.4127 85.3956L118.654 58.728C119.14 58.4458 119.826 58.2841 120.538 58.2841ZM120.538 57.7505C119.758 57.7505 118.978 57.9228 118.385 58.2665L72.1459 84.9335C71.9799 85.0248 71.839 85.1325 71.7233 85.2403C71.4084 85.5221 71.251 85.8534 71.251 86.1768C71.251 86.633 71.5493 87.0807 72.1464 87.4206L118.375 114.092C118.972 114.44 119.751 114.606 120.531 114.606C121.31 114.606 122.089 114.44 122.686 114.092L168.925 87.4169C170.111 86.7371 170.111 85.6176 168.925 84.9298L122.697 58.2665C122.1 57.9228 121.318 57.7505 120.538 57.7505Z" fill="#A6D4FF"/>
</g>
<g opacity="0.4">
<path d="M168.924 68.9513L122.685 95.6183C122.088 95.9668 121.309 96.1327 120.53 96.1327C119.751 96.1327 118.98 95.9673 118.383 95.6269L72.1454 68.955C71.5483 68.6071 71.25 68.1594 71.25 67.7118C71.25 67.2561 71.5483 66.8084 72.1454 66.4679L78.413 62.8539L118.385 39.7929C119.57 39.1051 121.502 39.1051 122.696 39.7929L168.924 66.4642C170.11 67.144 170.11 68.2635 168.924 68.9513Z" fill="#DCEEFF"/>
<path d="M120.53 87.1459V96.1327C119.751 96.1327 118.98 95.9673 118.383 95.6269L72.1454 68.955C71.5483 68.6071 71.25 68.1594 71.25 67.7118V59.9266C71.25 59.6038 71.4074 59.2719 71.7222 58.9901L78.4125 62.8533L120.53 87.1459Z" fill="#138DFD"/>
<path d="M120.53 87.1459V96.1327C121.309 96.1327 122.08 95.9673 122.676 95.6269L168.924 68.9518C169.521 68.6039 169.82 68.1562 169.82 67.7085V59.9234C169.82 59.6005 169.662 59.2692 169.348 58.9869L162.657 62.8502L120.53 87.1459Z" fill="#5AB0FF"/>
<path d="M168.924 61.1667L122.685 87.8417C122.088 88.1896 121.309 88.3555 120.53 88.3555C119.751 88.3555 118.971 88.1896 118.374 87.8417L72.1454 61.1704C71.5483 60.8305 71.25 60.3833 71.25 59.9266C71.25 59.6037 71.4074 59.2718 71.7222 58.9901C71.8386 58.8823 71.9794 58.7745 72.1448 58.6833L118.384 32.0163C119.57 31.3279 121.501 31.3279 122.695 32.0163L168.924 58.6796C170.11 59.3674 170.11 60.4869 168.924 61.1667Z" fill="#8BC7FF"/>
<path d="M120.538 32.0341C121.25 32.0341 121.939 32.1963 122.429 32.4786L168.657 59.1413C169.054 59.3718 169.281 59.6579 169.28 59.9273C169.28 60.1952 169.053 60.478 168.658 60.7048L122.417 87.3814C121.929 87.6653 121.259 87.8222 120.53 87.8222C119.801 87.8222 119.131 87.6653 118.641 87.3798L72.41 60.7069C72.0125 60.4807 71.7846 60.1963 71.7846 59.9268C71.7846 59.7496 71.8892 59.5581 72.0861 59.3809C72.1848 59.2897 72.291 59.2123 72.4127 59.1456L118.654 32.478C119.14 32.1958 119.826 32.0341 120.538 32.0341ZM120.538 31.5005C119.758 31.5005 118.978 31.6728 118.385 32.0165L72.1459 58.6835C71.9799 58.7748 71.839 58.8825 71.7233 58.9903C71.4084 59.2721 71.251 59.6034 71.251 59.9268C71.251 60.383 71.5493 60.8307 72.1464 61.1706L118.375 87.8419C118.972 88.1898 119.751 88.3558 120.531 88.3558C121.31 88.3558 122.089 88.1898 122.686 87.8419L168.925 61.1669C170.111 60.4871 170.111 59.3676 168.925 58.6798L122.697 32.0165C122.1 31.6728 121.318 31.5005 120.538 31.5005Z" fill="#A6D4FF"/>
</g>
<g opacity="0.3">
<path d="M48.4315 119.79V138.685C48.4315 139.565 47.8125 140.643 47.0441 141.086L33.288 149.026C32.9038 149.245 32.4022 149.357 31.9006 149.357C31.399 149.357 30.8975 149.245 30.5186 149.026L16.7625 141.086C15.9941 140.643 15.3751 139.565 15.3751 138.685V119.79H48.4315Z" fill="#5AB0FF"/>
<path d="M31.9006 119.79V149.357C31.3991 149.357 30.8975 149.245 30.5186 149.026L16.7625 141.086C15.9941 140.643 15.3751 139.565 15.3751 138.685V119.79H31.9006Z" fill="#138DFD"/>
<path d="M30.5165 110.581L15.9493 118.992C15.1836 119.434 15.1836 120.15 15.9493 120.593L30.5165 129.003C31.2822 129.445 32.5233 129.445 33.289 129.003L47.8562 120.593C48.6219 120.15 48.6219 119.434 47.8562 118.992L33.289 110.581C32.5233 110.14 31.2822 110.14 30.5165 110.581Z" fill="#DCEEFF"/>
<path d="M30.5165 110.581L15.9493 118.992C15.1836 119.434 15.1836 120.15 15.9493 120.593L30.5165 129.003C31.2822 129.445 32.5233 129.445 33.289 129.003L47.8562 120.593C48.6219 120.15 48.6219 119.434 47.8562 118.992L33.289 110.581C32.5233 110.14 31.2822 110.14 30.5165 110.581Z" fill="#8BC7FF"/>
</g>
<g opacity="0.6">
<path d="M88.5565 151.29V170.185C88.5565 171.065 87.9375 172.143 87.1691 172.586L73.413 180.526C73.0288 180.745 72.5272 180.857 72.0256 180.857C71.524 180.857 71.0225 180.745 70.6436 180.526L56.8875 172.586C56.1191 172.143 55.5001 171.065 55.5001 170.185V151.29H88.5565Z" fill="#5AB0FF"/>
<path d="M72.0256 151.29V180.857C71.524 180.857 71.0225 180.745 70.6436 180.526L56.8875 172.586C56.1191 172.143 55.5001 171.065 55.5001 170.185V151.29H72.0256Z" fill="#138DFD"/>
<path d="M70.6415 142.081L56.0743 150.492C55.3086 150.934 55.3086 151.65 56.0743 152.093L70.6415 160.503C71.4072 160.945 72.6483 160.945 73.414 160.503L87.9812 152.093C88.7469 151.65 88.7469 150.934 87.9812 150.492L73.414 142.081C72.6483 141.64 71.4072 141.64 70.6415 142.081Z" fill="#DCEEFF"/>
<path d="M70.6415 142.081L56.0743 150.492C55.3086 150.934 55.3086 151.65 56.0743 152.093L70.6415 160.503C71.4072 160.945 72.6483 160.945 73.414 160.503L87.9812 152.093C88.7469 151.65 88.7469 150.934 87.9812 150.492L73.414 142.081C72.6483 141.64 71.4072 141.64 70.6415 142.081Z" fill="#8BC7FF"/>
</g>
<path d="M136.931 179.04V197.935C136.931 198.815 136.312 199.893 135.544 200.336L121.788 208.276C121.404 208.495 120.902 208.607 120.401 208.607C119.899 208.607 119.397 208.495 119.019 208.276L105.262 200.336C104.494 199.893 103.875 198.815 103.875 197.935V179.04H136.931Z" fill="#5AB0FF"/>
<path d="M120.401 179.04V208.607C119.899 208.607 119.397 208.495 119.019 208.276L105.262 200.336C104.494 199.893 103.875 198.815 103.875 197.935V179.04H120.401Z" fill="#138DFD"/>
<path d="M119.016 169.831L104.449 178.242C103.684 178.684 103.684 179.4 104.449 179.843L119.016 188.253C119.782 188.695 121.023 188.695 121.789 188.253L136.356 179.843C137.122 179.4 137.122 178.684 136.356 178.242L121.789 169.831C121.023 169.39 119.782 169.39 119.016 169.831Z" fill="#DCEEFF"/>
<path d="M119.016 169.831L104.449 178.242C103.684 178.684 103.684 179.4 104.449 179.843L119.016 188.253C119.782 188.695 121.023 188.695 121.789 188.253L136.356 179.843C137.122 179.4 137.122 178.684 136.356 178.242L121.789 169.831C121.023 169.39 119.782 169.39 119.016 169.831Z" fill="#8BC7FF"/>
<g opacity="0.6">
<path d="M184.931 151.29V170.185C184.931 171.065 184.312 172.143 183.544 172.586L169.788 180.526C169.404 180.745 168.902 180.857 168.401 180.857C167.899 180.857 167.397 180.745 167.019 180.526L153.262 172.586C152.494 172.143 151.875 171.065 151.875 170.185V151.29H184.931Z" fill="#5AB0FF"/>
<path d="M168.401 151.29V180.857C167.899 180.857 167.397 180.745 167.019 180.526L153.262 172.586C152.494 172.143 151.875 171.065 151.875 170.185V151.29H168.401Z" fill="#138DFD"/>
<path d="M167.016 142.081L152.449 150.492C151.684 150.934 151.684 151.65 152.449 152.093L167.016 160.503C167.782 160.945 169.023 160.945 169.789 160.503L184.356 152.093C185.122 151.65 185.122 150.934 184.356 150.492L169.789 142.081C169.023 141.64 167.782 141.64 167.016 142.081Z" fill="#DCEEFF"/>
<path d="M167.016 142.081L152.449 150.492C151.684 150.934 151.684 151.65 152.449 152.093L167.016 160.503C167.782 160.945 169.023 160.945 169.789 160.503L184.356 152.093C185.122 151.65 185.122 150.934 184.356 150.492L169.789 142.081C169.023 141.64 167.782 141.64 167.016 142.081Z" fill="#8BC7FF"/>
</g>
<g opacity="0.3">
<path d="M224.306 119.79V138.685C224.306 139.565 223.687 140.643 222.919 141.086L209.163 149.026C208.779 149.245 208.277 149.357 207.776 149.357C207.274 149.357 206.772 149.245 206.394 149.026L192.637 141.086C191.869 140.643 191.25 139.565 191.25 138.685V119.79H224.306Z" fill="#5AB0FF"/>
<path d="M207.776 119.79V149.357C207.274 149.357 206.772 149.245 206.394 149.026L192.637 141.086C191.869 140.643 191.25 139.565 191.25 138.685V119.79H207.776Z" fill="#138DFD"/>
<path d="M206.391 110.581L191.824 118.992C191.059 119.434 191.059 120.15 191.824 120.593L206.391 129.003C207.157 129.445 208.398 129.445 209.164 129.003L223.731 120.593C224.497 120.15 224.497 119.434 223.731 118.992L209.164 110.581C208.398 110.14 207.157 110.14 206.391 110.581Z" fill="#DCEEFF"/>
<path d="M206.391 110.581L191.824 118.992C191.059 119.434 191.059 120.15 191.824 120.593L206.391 129.003C207.157 129.445 208.398 129.445 209.164 129.003L223.731 120.593C224.497 120.15 224.497 119.434 223.731 118.992L209.164 110.581C208.398 110.14 207.157 110.14 206.391 110.581Z" fill="#8BC7FF"/>
</g>
</g>
<defs>
<linearGradient id="paint0_linear_64_45793" x1="92.7256" y1="119.353" x2="99.0275" y2="119.353" gradientUnits="userSpaceOnUse">
<stop stop-color="#C8E2FF"/>
<stop offset="0.1783" stop-color="#C2DEFC"/>
<stop offset="0.4099" stop-color="#B2D1F4"/>
<stop offset="0.671" stop-color="#97BCE7"/>
<stop offset="0.9518" stop-color="#729FD5"/>
<stop offset="1" stop-color="#6B99D1"/>
</linearGradient>
<linearGradient id="paint1_linear_64_45793" x1="98.0058" y1="122.416" x2="104.308" y2="122.416" gradientUnits="userSpaceOnUse">
<stop stop-color="#C8E2FF"/>
<stop offset="0.1783" stop-color="#C2DEFC"/>
<stop offset="0.4099" stop-color="#B2D1F4"/>
<stop offset="0.671" stop-color="#97BCE7"/>
<stop offset="0.9518" stop-color="#729FD5"/>
<stop offset="1" stop-color="#6B99D1"/>
</linearGradient>
<linearGradient id="paint2_linear_64_45793" x1="103.286" y1="125.478" x2="109.588" y2="125.478" gradientUnits="userSpaceOnUse">
<stop stop-color="#C8E2FF"/>
<stop offset="0.1783" stop-color="#C2DEFC"/>
<stop offset="0.4099" stop-color="#B2D1F4"/>
<stop offset="0.671" stop-color="#97BCE7"/>
<stop offset="0.9518" stop-color="#729FD5"/>
<stop offset="1" stop-color="#6B99D1"/>
</linearGradient>
<linearGradient id="paint3_linear_64_45793" x1="108.566" y1="128.54" x2="114.868" y2="128.54" gradientUnits="userSpaceOnUse">
<stop stop-color="#C8E2FF"/>
<stop offset="0.1783" stop-color="#C2DEFC"/>
<stop offset="0.4099" stop-color="#B2D1F4"/>
<stop offset="0.671" stop-color="#97BCE7"/>
<stop offset="0.9518" stop-color="#729FD5"/>
<stop offset="1" stop-color="#6B99D1"/>
</linearGradient>
<linearGradient id="paint4_linear_64_45793" x1="147.606" y1="119.353" x2="141.304" y2="119.353" gradientUnits="userSpaceOnUse">
<stop stop-color="#C8E2FF"/>
<stop offset="0.1783" stop-color="#C2DEFC"/>
<stop offset="0.4099" stop-color="#B2D1F4"/>
<stop offset="0.671" stop-color="#97BCE7"/>
<stop offset="0.9518" stop-color="#729FD5"/>
<stop offset="1" stop-color="#6B99D1"/>
</linearGradient>
<linearGradient id="paint5_linear_64_45793" x1="142.326" y1="122.416" x2="136.024" y2="122.416" gradientUnits="userSpaceOnUse">
<stop stop-color="#C8E2FF"/>
<stop offset="0.1783" stop-color="#C2DEFC"/>
<stop offset="0.4099" stop-color="#B2D1F4"/>
<stop offset="0.671" stop-color="#97BCE7"/>
<stop offset="0.9518" stop-color="#729FD5"/>
<stop offset="1" stop-color="#6B99D1"/>
</linearGradient>
<linearGradient id="paint6_linear_64_45793" x1="137.046" y1="125.478" x2="130.744" y2="125.478" gradientUnits="userSpaceOnUse">
<stop stop-color="#C8E2FF"/>
<stop offset="0.1783" stop-color="#C2DEFC"/>
<stop offset="0.4099" stop-color="#B2D1F4"/>
<stop offset="0.671" stop-color="#97BCE7"/>
<stop offset="0.9518" stop-color="#729FD5"/>
<stop offset="1" stop-color="#6B99D1"/>
</linearGradient>
<linearGradient id="paint7_linear_64_45793" x1="131.766" y1="128.54" x2="125.464" y2="128.54" gradientUnits="userSpaceOnUse">
<stop stop-color="#C8E2FF"/>
<stop offset="0.1783" stop-color="#C2DEFC"/>
<stop offset="0.4099" stop-color="#B2D1F4"/>
<stop offset="0.671" stop-color="#97BCE7"/>
<stop offset="0.9518" stop-color="#729FD5"/>
<stop offset="1" stop-color="#6B99D1"/>
</linearGradient>
<clipPath id="clip0_64_45793">
<rect width="240" height="240" fill="white"/>
</clipPath>
</defs>
</svg>
