<svg width="165" height="191" viewBox="0 0 165 191" fill="none" xmlns="http://www.w3.org/2000/svg">
<path opacity="0.15" d="M162.319 146.046L86.1809 190.008C85.0294 190.68 83.5262 191 82.0229 191C80.5197 191 79.0164 190.68 77.865 190.008L1.72711 146.046C0.57569 145.391 0 144.527 0 143.648C0 143.024 0.303835 142.384 0.911531 141.841C1.13542 141.633 1.40727 141.425 1.72711 141.249L77.865 97.3029C80.1519 95.9755 83.878 95.9755 86.1809 97.3029L162.319 141.249C164.606 142.576 164.606 144.737 162.319 146.046Z" fill="#6B99D1"/>
<path d="M162.319 138.212L86.1809 182.158C85.0294 182.829 83.5262 183.149 82.0229 183.149C80.5197 183.149 79.0324 182.829 77.881 182.174L1.72711 138.212C0.57569 137.54 0 136.677 0 135.813C0 134.933 0.57569 134.07 1.72711 133.414L13.8171 126.442L77.865 89.4523C80.1519 88.125 83.878 88.125 86.1809 89.4523L162.319 133.414C164.606 134.726 164.606 136.884 162.319 138.212Z" fill="#DCEEFF"/>
<path d="M82.0229 165.814V183.149C80.5197 183.149 79.0324 182.829 77.881 182.174L1.72711 138.212C0.57569 137.54 0 136.676 0 135.813V120.796C0 120.173 0.303835 119.533 0.911531 118.989L13.8171 126.442L82.0229 165.814Z" fill="#A5CBFA"/>
<path d="M82.0227 165.814V183.149C83.526 183.149 85.0132 182.829 86.1646 182.174L162.319 138.212C163.47 137.54 164.046 136.676 164.046 135.813V120.796C164.046 120.173 163.742 119.533 163.134 118.989L150.229 126.442L82.0227 165.814Z" fill="#C8E2FF"/>
<path d="M162.319 123.195L86.1809 167.157C85.0294 167.829 83.5262 168.149 82.0229 168.149C80.5197 168.149 79.0164 167.829 77.865 167.157L1.72711 123.195C0.57569 122.54 0 121.676 0 120.797C0 120.173 0.303835 119.533 0.911531 118.989C1.13542 118.782 1.40727 118.574 1.72711 118.398L77.865 74.4518C80.1519 73.1245 83.878 73.1245 86.1809 74.4518L162.319 118.398C164.606 119.725 164.606 121.884 162.319 123.195Z" fill="#DCEEFF"/>
<path d="M82.0181 75.0562C83.2943 75.0562 84.5209 75.3409 85.3829 75.8382L161.518 119.783C162.197 120.178 162.437 120.581 162.437 120.806C162.437 121.028 162.197 121.425 161.521 121.812L85.3765 165.779C84.5337 166.27 83.3119 166.551 82.0246 166.551C80.7372 166.551 79.5154 166.27 78.6662 165.774L2.52032 121.807C1.9542 121.484 1.60079 121.099 1.60079 120.798C1.60079 120.625 1.74153 120.395 1.999 120.165C2.15572 120.019 2.32363 119.898 2.52832 119.786L78.6694 75.8382C79.5218 75.3393 80.742 75.0562 82.0181 75.0562ZM82.0181 73.457C80.5133 73.457 79.0084 73.7897 77.865 74.4533L1.72711 118.399C1.40727 118.575 1.13542 118.783 0.911531 118.991C0.303835 119.535 0 120.174 0 120.798C0 121.678 0.57569 122.541 1.72711 123.197L77.865 167.159C79.0164 167.83 80.5197 168.15 82.0229 168.15C83.5262 168.15 85.0294 167.83 86.1809 167.159L162.319 123.197C164.606 121.886 164.606 119.727 162.319 118.399L86.1809 74.4533C85.0294 73.7881 83.523 73.457 82.0181 73.457Z" fill="white"/>
<path d="M79.25 84.8977L19.8301 119.204C18.3013 120.086 18.3013 121.519 19.8301 122.402L79.2516 156.708C80.782 157.591 83.2624 157.591 84.7912 156.708L144.211 122.402C145.74 121.519 145.74 120.086 144.211 119.204L84.7912 84.8977C83.2608 84.0149 80.7788 84.0149 79.25 84.8977Z" fill="#8DB5E7"/>
<path d="M144.209 119.205L84.7896 84.8993C84.0235 84.4579 83.0224 84.2356 82.0197 84.2356V87.0502L143.731 122.679L144.209 122.404C145.74 121.519 145.74 120.088 144.209 119.205Z" fill="#719DD3"/>
<path d="M82.0198 84.2356C81.0171 84.2356 80.0144 84.4563 79.25 84.8993L19.8301 119.205C18.3013 120.088 18.3013 121.521 19.8301 122.404L20.3083 122.679L82.0214 87.0502L82.0198 84.2356Z" fill="#719DD3"/>
<g opacity="0.3">
<path d="M62.529 102.051L82.012 113.306L82.0184 22.5072L62.5306 11.2568L62.529 102.051Z" fill="#138DFD"/>
<path d="M82.0122 113.306L101.506 102.051L101.498 11.2551L82.0186 22.5071L82.0122 113.306Z" fill="#5AB0FF"/>
<path d="M101.498 11.2552L82.0119 0L62.5304 11.2568L82.0182 22.5071L101.498 11.2552Z" fill="#5AB0FF"/>
<path d="M82.0125 113.306C82.0125 113.306 81.7294 113.072 81.5583 112.633C81.344 112.193 81.432 111.548 81.4176 110.728C81.424 109.087 81.432 106.743 81.4432 103.93C81.472 98.3038 81.5104 90.8036 81.5471 83.3017C81.6415 75.8015 81.6895 68.2997 81.8302 62.6737C81.9437 57.0477 82.0189 53.2976 82.0189 53.2976C82.0189 53.2976 82.0925 57.0477 82.206 62.6737C82.3467 68.2997 82.3915 75.8015 82.4843 83.3017C82.5194 90.802 82.5562 98.3038 82.5834 103.93C82.593 106.743 82.6026 109.087 82.609 110.728C82.5946 111.548 82.681 112.193 82.4683 112.633C82.2956 113.071 82.0125 113.306 82.0125 113.306Z" fill="white"/>
<path d="M101.497 11.2552C101.476 11.2216 101.566 11.5494 101.5 11.7669C101.472 12.0468 101.216 12.0868 100.958 12.2563C100.423 12.5601 99.6598 12.9967 98.7451 13.5196C96.9156 14.5687 94.464 15.9456 91.99 17.2857C89.5097 18.6131 87.0469 19.9724 85.1567 20.9175C83.284 21.8914 82.0142 22.5055 82.0142 22.5055C82.0142 22.5055 83.1801 21.7123 84.96 20.5769C86.7239 19.4127 89.1307 17.959 91.5215 16.4734C93.9187 15.0021 96.3367 13.566 98.1598 12.5041C99.0697 11.9716 99.8277 11.5286 100.359 11.2184C100.634 11.0793 100.797 10.8778 101.053 10.9929C101.277 11.0473 101.518 11.2904 101.497 11.2552Z" fill="white"/>
</g>
<g opacity="0.6">
<path d="M95.0161 120.798L114.498 132.053L114.504 79.5484L95.0161 68.2981V120.798Z" fill="#138DFD"/>
<path d="M114.497 132.053L133.991 120.8L133.985 68.2966L114.503 79.5486L114.497 132.053Z" fill="#5AB0FF"/>
<path d="M133.985 68.2965L114.498 57.043L95.0162 68.2981L114.504 79.5485L133.985 68.2965Z" fill="#5AB0FF"/>
<path d="M114.497 132.053C114.497 132.053 114.214 131.849 114.043 131.463C113.83 131.078 113.917 130.515 113.902 129.797C113.909 128.361 113.917 126.311 113.928 123.85C113.96 118.927 113.953 112.364 114.032 105.801C114.124 99.2379 114.179 92.6748 114.305 87.7525C114.424 82.8301 114.502 79.5486 114.502 79.5486C114.502 79.5486 114.58 82.8301 114.697 87.7525C114.823 92.6748 114.876 99.2379 114.966 105.801C115.042 112.364 115.033 118.927 115.065 123.85C115.076 126.311 115.084 128.361 115.09 129.797C115.076 130.515 115.162 131.078 114.95 131.463C114.78 131.849 114.497 132.053 114.497 132.053Z" fill="white"/>
<path d="M133.985 68.2964C133.964 68.2628 134.054 68.5923 133.99 68.8082C133.961 69.088 133.705 69.128 133.448 69.2975C132.914 69.6014 132.151 70.038 131.234 70.5609C129.405 71.61 126.953 72.9869 124.479 74.327C121.999 75.6543 119.536 77.0137 117.648 77.9588C115.775 78.9327 114.505 79.5468 114.505 79.5468C114.505 79.5468 115.671 78.7536 117.451 77.6181C119.213 76.4539 121.622 75.0003 124.011 73.5146C126.408 72.0434 128.826 70.6073 130.649 69.5454C131.559 69.0129 132.319 68.5699 132.85 68.2596C133.125 68.1205 133.288 67.919 133.544 68.0342C133.764 68.0885 134.004 68.3316 133.985 68.2964Z" fill="white"/>
</g>
<g opacity="0.6">
<path d="M30.0424 120.801L49.5239 132.057L49.5303 72.0483L30.0424 60.7964V120.801Z" fill="#138DFD"/>
<path d="M49.5236 132.057L69.0179 120.803L69.0115 60.7964L49.53 72.0483L49.5236 132.057Z" fill="#5AB0FF"/>
<path d="M69.0117 60.7964L49.5239 49.5413L30.0424 60.7964L49.5303 72.0484L69.0117 60.7964Z" fill="#5AB0FF"/>
<path d="M49.524 132.057C49.524 132.057 49.241 131.823 49.0698 131.383C48.8556 130.944 48.9435 130.299 48.9291 129.479C48.9355 127.838 48.9435 125.494 48.9547 122.681C48.9835 117.055 49.0219 109.554 49.0586 102.052C49.153 94.5522 49.201 87.0504 49.3417 81.4244C49.4552 75.7985 49.5304 72.0483 49.5304 72.0483C49.5304 72.0483 49.604 75.7985 49.7175 81.4244C49.8566 87.0504 49.903 94.5506 49.9958 102.052C50.031 109.553 50.0678 117.055 50.0949 122.681C50.1045 125.494 50.1141 127.838 50.1205 129.479C50.1061 130.299 50.1941 130.944 49.9798 131.383C49.8071 131.823 49.524 132.057 49.524 132.057Z" fill="white"/>
<path d="M69.0117 60.7964C68.9909 60.7628 69.0805 61.0923 69.0165 61.3082C68.9877 61.588 68.7319 61.628 68.4744 61.7975C67.9387 62.1014 67.1758 62.538 66.2611 63.0609C64.4316 64.11 61.9784 65.4869 59.5061 66.827C57.0257 68.1543 54.563 69.5137 52.6727 70.4588C50.8 71.4327 49.5303 72.0468 49.5303 72.0468C49.5303 72.0468 50.6961 71.2536 52.476 70.1182C54.2383 68.9539 56.6467 67.5003 59.0359 66.0146C61.4331 64.5434 63.8511 63.1073 65.6742 62.0454C66.5841 61.5129 67.3438 61.0699 67.8747 60.7596C68.1498 60.6205 68.3129 60.419 68.5688 60.5342C68.791 60.5885 69.0325 60.83 69.0117 60.7964Z" fill="white"/>
</g>
<path d="M62.5348 139.555L82.0163 150.81L82.0243 105.801L62.5364 94.5488L62.5348 139.555Z" fill="#138DFD"/>
<path d="M82.0163 150.81L101.512 139.555L101.504 94.5488L82.0243 105.801L82.0163 150.81Z" fill="#5AB0FF"/>
<path d="M101.505 94.5489L82.0167 83.2937L62.5369 94.5489L82.0247 105.801L101.505 94.5489Z" fill="#5AB0FF"/>
<path d="M82.0161 150.81C82.0161 150.81 81.733 150.634 81.5619 150.305C81.3492 149.976 81.4356 149.491 81.4212 148.877C81.4276 147.645 81.4356 145.888 81.4468 143.779C81.4804 139.558 81.4724 133.932 81.5507 128.306C81.6435 122.68 81.6979 117.054 81.8242 112.834C81.9425 108.615 82.0225 105.802 82.0225 105.802C82.0225 105.802 82.1008 108.615 82.2176 112.834C82.3439 117.054 82.3967 122.68 82.4879 128.306C82.5646 133.932 82.555 139.558 82.587 143.779C82.5966 145.888 82.6062 147.647 82.6126 148.877C82.5982 149.493 82.6846 149.977 82.4719 150.305C82.2992 150.634 82.0161 150.81 82.0161 150.81Z" fill="white"/>
<path d="M101.504 94.5489C101.484 94.5153 101.573 94.8447 101.508 95.0606C101.479 95.3405 101.223 95.3804 100.966 95.5499C100.431 95.8538 99.6669 96.2904 98.7522 96.8133C96.9227 97.8624 94.4712 99.2393 91.9972 100.579C89.5168 101.907 87.0541 103.266 85.1638 104.211C83.2912 105.185 82.0214 105.799 82.0214 105.799C82.0214 105.799 83.1872 105.006 84.9671 103.872C86.731 102.708 89.1378 101.254 91.5286 99.7686C93.9258 98.2958 96.3438 96.8613 98.1669 95.801C99.0768 95.2685 99.8349 94.8255 100.366 94.5153C100.641 94.3761 100.804 94.1746 101.06 94.2898C101.284 94.341 101.525 94.584 101.504 94.5489Z" fill="white"/>
</svg>
