<svg width="18" height="18" viewBox="0 0 18 18" fill="none" xmlns="http://www.w3.org/2000/svg">
<path d="M14.8621 13.1599C15.6967 11.9858 16.1875 10.5502 16.1875 9C16.1875 5.03045 12.9695 1.8125 9 1.8125C5.03045 1.8125 1.8125 5.03045 1.8125 9C1.8125 10.5502 2.30327 11.9858 3.13791 13.1598C6.65891 10.7183 11.3411 10.7183 14.8621 13.1599ZM13.8141 14.3372C10.8996 12.4092 7.1004 12.4092 4.18589 14.3372C5.46015 15.4873 7.1483 16.1875 9 16.1875C10.8517 16.1875 12.5398 15.4873 13.8141 14.3372ZM9 17.75C4.16751 17.75 0.25 13.8325 0.25 9C0.25 4.16751 4.16751 0.25 9 0.25C13.8325 0.25 17.75 4.16751 17.75 9C17.75 13.8325 13.8325 17.75 9 17.75ZM9.00005 8.63327C8.24098 8.63327 7.62564 8.01793 7.62564 7.25887C7.62564 6.4998 8.24098 5.88446 9.00005 5.88446C9.75911 5.88446 10.3745 6.4998 10.3745 7.25887C10.3745 8.01793 9.75911 8.63327 9.00005 8.63327ZM9.00005 10.1958C10.6221 10.1958 11.937 8.88088 11.937 7.25887C11.937 5.63686 10.6221 4.32196 9.00005 4.32196C7.37804 4.32196 6.06314 5.63686 6.06314 7.25887C6.06314 8.88088 7.37804 10.1958 9.00005 10.1958Z" fill="#1A1A1A"/>
</svg>
