<?xml version="1.0" standalone="no"?>
<!DOCTYPE svg PUBLIC "-//W3C//DTD SVG 20010904//EN"
 "http://www.w3.org/TR/2001/REC-SVG-20010904/DTD/svg10.dtd">
<svg version="1.0" xmlns="http://www.w3.org/2000/svg"
 width="512.000000pt" height="512.000000pt" viewBox="0 0 512.000000 512.000000"
 preserveAspectRatio="xMidYMid meet">
<metadata>
Created by potrace 1.14, written by Peter Selinger 2001-2017
</metadata>
<g transform="translate(0.000000,512.000000) scale(0.100000,-0.100000)"
fill="#000000" stroke="none">
<path d="M0 2560 l0 -2560 2560 0 2560 0 0 2560 0 2560 -2560 0 -2560 0 0
-2560z m2018 1263 c272 -807 812 -2402 817 -2415 7 -17 -16 -18 -392 -18
l-400 0 -61 213 c-33 116 -165 580 -293 1031 -148 523 -235 812 -239 800 -4
-11 -119 -475 -256 -1031 l-248 -1013 -379 0 c-352 0 -379 1 -373 17 4 9 184
577 402 1262 217 685 396 1252 399 1259 3 9 111 12 494 12 l489 0 40 -117z
m2249 -502 c110 -27 187 -60 270 -113 261 -171 411 -511 389 -888 -4 -63 -10
-131 -14 -150 l-8 -35 -618 -3 -617 -2 6 -23 c19 -60 125 -131 242 -161 174
-45 454 -41 682 10 64 14 120 27 125 27 11 2 99 -440 92 -459 -6 -17 -166 -68
-292 -93 -230 -47 -555 -52 -754 -12 -446 89 -717 368 -770 795 -56 443 186
890 569 1051 84 35 180 62 274 75 101 14 330 4 424 -19z"/>
<path d="M3869 2877 c-58 -22 -106 -55 -139 -97 -36 -45 -69 -116 -70 -147 l0
-23 306 0 306 0 -7 43 c-16 93 -74 174 -151 212 -50 25 -192 31 -245 12z"/>
</g>
</svg>
